<?xml version="1.0" encoding="utf-8"?>
<!-- Generator: Adobe Illustrator 27.2.0, SVG Export Plug-In . SVG Version: 6.00 Build 0)  -->
<svg version="1.1" xmlns="http://www.w3.org/2000/svg" xmlns:xlink="http://www.w3.org/1999/xlink" x="0px" y="0px"
	 viewBox="0 0 521 512" enable-background="new 0 0 521 512" xml:space="preserve" class="h-full">
<g>
	<path fill="#FFFFFF" d="M509.6,429.3l-127-127c43.4-78.6,30.2-178-34.5-242.6c-19.5-19.5-42.2-34.5-67.5-44.8
		C256.3,5,230.5,0,204,0s-52.3,5-76.8,14.9c-25.3,10.3-48,25.3-67.5,44.8S25.3,101.9,15,127.2c-9.9,24.4-14.9,50.3-14.9,76.7
		c0,26.5,5,52.3,14.9,76.7c10.3,25.3,25.3,48,44.8,67.5c35.2,35.2,81.8,56.2,131.3,59.3c4.3,0.3,8.6,0.4,12.9,0.4
		c39,0,77.1-11.1,109.8-32.1l124.7,124.7c7.7,7.7,17.7,11.5,27.8,11.5s20.1-3.8,27.8-11.5l15.6-15.6c7.4-7.4,11.5-17.3,11.5-27.8
		C521.1,446.6,517,436.7,509.6,429.3z M192.7,382.6c-43.5-2.7-84.4-21.2-115.3-52.1c-33.8-33.8-52.4-78.8-52.4-126.6
		s18.6-92.8,52.4-126.6S156.2,24.9,204,24.9s92.8,18.6,126.6,52.4c60.7,60.7,69.8,156.2,21.6,227l0,0c-6.3,9.2-13.5,18-21.6,26.1
		c-5.6,5.6-11.7,10.9-18.1,15.8C278.3,372.5,235.8,385.3,192.7,382.6z M491.9,467.3l-15.6,15.6c-5.6,5.6-14.7,5.6-20.3,0L334.2,361
		c4.9-4.1,9.6-8.3,14-12.8c7.6-7.6,14.5-15.7,20.8-24.2L492,447c2.7,2.7,4.2,6.3,4.2,10.1C496.1,460.9,494.6,464.5,491.9,467.3z"/>
	<path fill="#0052FF" d="M204,343.2c-37.2,0-72.1-14.5-98.4-40.8S64.9,241.2,64.9,204s14.5-72.1,40.8-98.4s61.2-40.8,98.4-40.8
		s72.1,14.5,98.4,40.8l0,0c26.3,26.3,40.8,61.2,40.8,98.4s-14.5,72.1-40.8,98.4S241.2,343.2,204,343.2z M204,89.7
		c-30.5,0-59.2,11.9-80.8,33.5S89.8,173.5,89.8,204s11.9,59.2,33.5,80.8s50.3,33.5,80.8,33.5s59.2-11.9,80.8-33.5
		c21.6-21.6,33.5-50.3,33.5-80.8s-11.9-59.2-33.5-80.8C263.2,101.6,234.5,89.7,204,89.7z"/>
</g>
</svg>
