<?xml version="1.0" encoding="utf-8"?>
<!-- Generator: Adobe Illustrator 27.2.0, SVG Export Plug-In . SVG Version: 6.00 Build 0)  -->
<svg version="1.1" xmlns="http://www.w3.org/2000/svg" xmlns:xlink="http://www.w3.org/1999/xlink" x="0px" y="0px"
	 viewBox="0 0 366 512" enable-background="new 0 0 366 512" xml:space="preserve" class="h-full">
<g>
	<path fill="#E80069" d="M28.2,28.9l13-5.4c1.1-0.5,2.2-0.7,3.4-0.7c3.4,0,6.6,2,8,5.3l97.2,231.8l21.1-8.9L73.7,19.3
		C67,3.2,48.4-4.4,32.4,2.4l-13,5.4c-7.8,3.3-13.9,9.4-17,17.2c-3.2,7.8-3.2,16.4,0.1,24.2L99.7,281l21.1-8.9L23.6,40.3
		c-0.9-2.2-0.9-4.5,0-6.7C24.4,31.5,26.1,29.8,28.2,28.9z"/>
	<path fill="#0052FF" d="M217,267.4l-21.1,8.9l-0.5-1.2c-0.9-2.2-2.6-3.8-4.7-4.7c-1.1-0.4-2.2-0.7-3.3-0.7c-1.1,0-2.3,0.2-3.4,0.7
		l-14.7,6.2l-50.3,21.1l-14.5,6.1c-2.1,0.9-3.8,2.6-4.7,4.7s-0.9,4.5,0,6.7l0.5,1.2l-21.1,8.9l-0.5-1.2c-3.3-7.8-3.3-16.4-0.1-24.2
		c3.2-7.8,9.2-13.9,17-17.2l4.1-1.7l21.1-8.9l29-12.2l21.1-8.9l4.1-1.7c7.8-3.3,16.4-3.3,24.2-0.1c7.8,3.2,13.9,9.3,17.2,17
		L217,267.4z"/>
	<path fill="#FFFFFF" d="M361.4,359.1L289.5,263c-8.7-11.6-24.1-15.9-37.5-10.2l-35,14.7l-21.1,8.9l-95.6,40.1l-21.1,8.9l-35,14.7
		c-13.4,5.6-21.2,19.6-19,33.9l18.1,118.6c1.1,7,5.2,13.1,11.5,16.5c3.5,2,7.3,2.9,11.2,2.9c3,0,6-0.6,8.9-1.8L352,394.1
		c6.6-2.8,11.4-8.3,13.3-15.1C367,372,365.6,364.8,361.4,359.1z M343,372.8l-44.9,18.8L255,325.5c-3.5-5.3-10.6-6.8-15.9-3.3
		c-5.3,3.5-6.8,10.6-3.3,15.9l40.8,62.6l-61.5,25.8l-29.2-69.7c-2.5-5.8-9.2-8.6-15-6.1s-8.6,9.2-6.1,15l29.2,69.7l-61.5,25.8
		l-16-72.9c-1.4-6.2-7.5-10.1-13.6-8.7c-6.2,1.4-10.1,7.5-8.7,13.7l16.9,77l-44.9,18.8L48,370.5c-0.6-4,1.5-7.8,5.2-9.3l162.3-68
		l45.5-19.1c3.7-1.5,7.9-0.4,10.3,2.8L343,372.8L343,372.8z"/>
</g>
</svg>
