<?xml version="1.0" encoding="utf-8"?>
<!-- Generator: Adobe Illustrator 27.2.0, SVG Export Plug-In . SVG Version: 6.00 Build 0)  -->
<svg version="1.1" xmlns="http://www.w3.org/2000/svg" xmlns:xlink="http://www.w3.org/1999/xlink" x="0px" y="0px"
	 viewBox="0 0 795 512" enable-background="new 0 0 795 512" xml:space="preserve" class="h-full">
<g>
	<path fill="#FFFFFF" d="M782,419.6h-33.1c0.6-2.6,1-5.4,1-8.2V34.3c0-18.9-15.4-34.3-34.3-34.3H74.7C55.8-0.1,40.4,15.3,40.4,34.2
		v377.1c0,2.8,0.3,5.6,1,8.2H13c-7.2,0-13,5.8-13,13V499c0,7.2,5.8,13,13,13h769c7.2,0,13-5.8,13-13v-66.3
		C795,425.5,789.2,419.6,782,419.6z M66.5,34.2c0-4.5,3.7-8.2,8.2-8.2h640.8c4.5,0,8.2,3.7,8.2,8.2v377.1c0,4.5-3.7,8.2-8.2,8.2
		H74.7c-4.5,0-8.2-3.7-8.2-8.2V34.2z M769,485.9H26v-40.2h242v1.1c0,7.2,5.8,13,13.1,13H506c7.2,0,13.1-5.8,13.1-13v-1.1H769V485.9z
		"/>
	<path fill="#0052FF" d="M670.9,395.2H122.5c-16.7,0-30.2-13.6-30.2-30.2V79c0-16.7,13.6-30.2,30.2-30.2H671
		c16.7,0,30.2,13.6,30.2,30.2v286C701.2,381.6,687.6,395.2,670.9,395.2z M122.5,74.8c-2.3,0-4.1,1.9-4.1,4.1V365
		c0,2.3,1.9,4.1,4.1,4.1H671c2.3,0,4.1-1.9,4.1-4.1V79c0-2.3-1.9-4.1-4.1-4.1H122.5V74.8z"/>
</g>
</svg>
