<?xml version="1.0" encoding="utf-8"?>
<!-- Generator: Adobe Illustrator 27.2.0, SVG Export Plug-In . SVG Version: 6.00 Build 0)  -->
<svg version="1.1" xmlns="http://www.w3.org/2000/svg" xmlns:xlink="http://www.w3.org/1999/xlink" x="0px" y="0px"
	 viewBox="0 0 383 512" enable-background="new 0 0 383 512" xml:space="preserve" class="h-full">
<g>
	<path fill="#FFFFFF" d="M353.9,512H29.1C13,512,0,498.9,0,482.9V29.1C0,13.1,13.1,0,29.1,0h324.8C370,0,383,13.1,383,29.1v453.8
		C383,498.9,369.9,512,353.9,512z M29.1,23.8c-2.9,0-5.3,2.4-5.3,5.3v453.8c0,2.9,2.4,5.3,5.3,5.3h324.8c2.9,0,5.3-2.4,5.3-5.3V29.1
		c0-2.9-2.4-5.3-5.3-5.3H29.1z"/>
	<path fill="#E6005E" d="M317.9,131.9H181.7c-6.6,0-11.9-5.3-11.9-11.9s5.3-11.9,11.9-11.9h136.2c6.6,0,11.9,5.3,11.9,11.9
		C329.8,126.5,324.4,131.9,317.9,131.9z"/>
	<path fill="#0052FF" d="M317.9,265.3H181.7c-6.6,0-11.9-5.3-11.9-11.9s5.3-11.9,11.9-11.9h136.2c6.6,0,11.9,5.3,11.9,11.9
		C329.8,260,324.4,265.3,317.9,265.3z"/>
	<path fill="#0052FF" d="M317.9,398.8H181.7c-6.6,0-11.9-5.3-11.9-11.9s5.3-11.9,11.9-11.9h136.2c6.6,0,11.9,5.3,11.9,11.9
		S324.4,398.8,317.9,398.8z"/>
	<path fill="#E6005E" d="M90.6,140.6c-11.4,0-20.6-9.3-20.6-20.6s9.3-20.6,20.6-20.6s20.6,9.3,20.6,20.6S101.9,140.6,90.6,140.6z
		 M90.6,116.8c-1.8,0-3.2,1.4-3.2,3.2c0,1.8,1.4,3.2,3.2,3.2c1.8,0,3.2-1.4,3.2-3.2C93.8,118.2,92.4,116.8,90.6,116.8z"/>
	<path fill="#0052FF" d="M90.6,274.1c-11.4,0-20.6-9.3-20.6-20.6c0-11.4,9.3-20.6,20.6-20.6s20.6,9.3,20.6,20.6
		C111.2,264.8,101.9,274.1,90.6,274.1z M90.6,250.3c-1.8,0-3.2,1.4-3.2,3.2s1.4,3.2,3.2,3.2c1.8,0,3.2-1.4,3.2-3.2
		S92.4,250.3,90.6,250.3z"/>
	<path fill="#0052FF" d="M90.6,405.2c-11.4,0-20.6-9.3-20.6-20.6c0-11.4,9.3-20.6,20.6-20.6s20.6,9.3,20.6,20.6
		C111.2,395.9,101.9,405.2,90.6,405.2z M90.6,381.4c-1.8,0-3.2,1.4-3.2,3.2c0,1.8,1.4,3.2,3.2,3.2c1.8,0,3.2-1.4,3.2-3.2
		S92.4,381.4,90.6,381.4z"/>
</g>
</svg>
