<?xml version="1.0" encoding="utf-8"?>
<!-- Generator: Adobe Illustrator 27.2.0, SVG Export Plug-In . SVG Version: 6.00 Build 0)  -->
<svg version="1.1" xmlns="http://www.w3.org/2000/svg" xmlns:xlink="http://www.w3.org/1999/xlink" x="0px" y="0px"
	 viewBox="0 0 384 512" enable-background="new 0 0 384 512" xml:space="preserve" class="h-full">
<g>
	<path fill="#0D1830" d="M381.3,144.1c-0.1-0.1-0.1-0.1-0.2-0.2c-0.1-0.2-0.3-0.3-0.4-0.5c-0.2-0.2-0.4-0.4-0.6-0.6l-0.5-0.5
		C380.2,142.8,380.8,143.4,381.3,144.1z"/>
	<path fill="#0D1830" d="M381.3,144.1c0.6,0.7,1.1,1.4,1.4,2.2c-0.1-0.1-0.1-0.2-0.2-0.3c-0.1-0.2-0.2-0.4-0.4-0.6
		c-0.1-0.2-0.2-0.4-0.4-0.6C381.6,144.6,381.4,144.4,381.3,144.1C381.4,144.2,381.3,144.1,381.3,144.1z"/>
	<path fill="#0D1830" d="M382.7,146.3c0.1,0.3,0.3,0.5,0.4,0.8c0-0.1,0-0.1-0.1-0.2c-0.1-0.2-0.2-0.4-0.2-0.5
		C382.8,146.4,382.8,146.4,382.7,146.3z"/>
	<path fill="#FFFFFF" d="M384,151.7v327.2c0,18.2-14.8,33.1-33.1,33.1H33.1C14.9,512,0,497.2,0,478.9V33.1C0,14.9,14.8,0,33.1,0h185
		c-1.6,0-3.3,0.3-4.9,1c-4.3,1.9-7.1,6.2-7.1,11v12h-173c-5,0-9.1,4.1-9.1,9.1v445.8c0,5,4.1,9.1,9.1,9.1h317.8c5,0,9.1-4.1,9.1-9.1
		V163.6h12c5,0,9.4-3,11.2-7.7C383.7,154.6,384,153.1,384,151.7z"/>
	<path fill="#E6005E" d="M383.8,149.8c-0.1-0.4-0.1-0.8-0.2-1.2c0-0.2-0.1-0.3-0.1-0.5c0-0.1,0-0.1-0.1-0.2
		c-0.1-0.2-0.1-0.4-0.2-0.6c0-0.1-0.1-0.2-0.1-0.2s0-0.1-0.1-0.2c-0.1-0.2-0.2-0.4-0.2-0.5c-0.1-0.1-0.1-0.3-0.2-0.4
		c-0.1-0.2-0.2-0.4-0.4-0.6c-0.1-0.2-0.2-0.4-0.4-0.6c-0.1-0.2-0.3-0.4-0.4-0.6c-0.1-0.1-0.2-0.2-0.3-0.3c-0.1-0.2-0.3-0.3-0.4-0.5
		c-0.2-0.2-0.4-0.4-0.6-0.6l-0.5-0.5L226.1,3.1c-0.8-0.8-1.8-1.4-2.8-1.9C223.1,1.1,223,1,222.8,1c-0.1-0.1-0.3-0.1-0.4-0.2
		c-0.2-0.1-0.4-0.2-0.6-0.2c-0.2-0.1-0.3-0.1-0.5-0.2c-0.2-0.1-0.4-0.1-0.6-0.2c-0.2,0-0.3-0.1-0.5-0.1S219.7,0,219.5,0
		c-0.1,0-0.2,0-0.3,0c-0.2,0-0.3,0-0.5,0s-0.4,0-0.6,0c-1.6,0-3.3,0.3-4.9,1c-4.3,1.9-7.1,6.2-7.1,11v139.7c0,6.6,5.4,12,12,12H372
		c5,0,9.4-3,11.2-7.7c0.5-1.4,0.8-2.9,0.8-4.3C384,151,383.9,150.4,383.8,149.8z M230.1,139.7V39L341,139.6L230.1,139.7L230.1,139.7
		z"/>
</g>
</svg>
