<?xml version="1.0" encoding="utf-8"?>
<!-- Generator: Adobe Illustrator 27.2.0, SVG Export Plug-In . SVG Version: 6.00 Build 0)  -->
<svg version="1.1" xmlns="http://www.w3.org/2000/svg" xmlns:xlink="http://www.w3.org/1999/xlink" x="0px" y="0px"
	 viewBox="0 0 439 512" enable-background="new 0 0 439 512" xml:space="preserve" class="h-full">
<g>
	<path fill="#FFFFFF" d="M223.6,512c-4.4,0-12.7-2-32.9-10.8c-15.2-6.6-30.1-14-37.9-18.9c-36.1-22.4-66.4-50.7-89.8-84.1
		c-22.7-32.5-39.1-70-48.8-111.5C7,255.7,2.7,222.5,1.1,185.1L1,183.8c-0.7-15.7-1.4-31.9,0.6-48.1c0.1-0.5,0.2-1.6,0.3-3.1
		c0.6-5.4,1.8-16.7,3.3-26.5c0.9-5.8,1.6-10.2,2.4-13.5C8.4,89,11,78.2,21.4,78.1c0.3,0,0.6,0,0.9,0c0.3,0,32.5,1.9,72.4-6.5
		c36-7.6,86.2-25.4,120-67.2c2.1-2.6,5.3-4.2,8.6-4.4c3.4-0.2,6.7,1,9.1,3.4c0.5,0.5,22.2,21.5,56.1,41.1
		c31.1,18,79.2,38.5,132.1,34.6c3.4-0.3,6.8,1,9.2,3.3c3.8,3.6,4,6.8,5.2,21.7c0.7,9.7,1.5,21.8,2,30.2c1,16.5,2.5,44.4,2.3,49.3
		c-2.3,76.8-15.5,137.5-40.2,185.7c-25,48.5-56.3,82.2-104.8,112.7c-23.1,14.5-43.8,21.5-63.9,28.3l-2.5,0.8
		C226.7,511.6,225.5,512,223.6,512z M30.1,102.3c-1,5.4-2.4,15.2-4.4,33c-0.2,1.7-0.3,2.9-0.4,3.4c-1.8,14.2-1.1,29.4-0.5,44.1
		l0.1,1.4c1.5,35.8,5.6,67.6,12.5,97.1C55.7,360,98.7,420.8,165.2,461.9c13.7,8.4,47.8,23.5,57.2,25.8l0.2-0.1
		c19.7-6.6,38.2-12.9,58.8-25.9c45.2-28.4,73.1-58.4,96.3-103.4c23.1-44.9,35.4-102.3,37.6-175.4c0.2-6-2.7-57.3-4.4-79.4
		c-1.2,0-2.4,0-3.7,0c-42.5,0-87.6-13.2-131.3-38.6C252.7,51.4,235.1,37.5,225,29c-30.3,32.5-73.6,55.3-126.1,66.2
		C68.8,101.5,43.2,102.3,30.1,102.3z"/>
	<path fill="#E6005E" d="M209.1,337.5c-2.7,0-5.4-0.9-7.6-2.7L132,277.5c-5.1-4.2-5.8-11.8-1.6-16.9c4.2-5.1,11.8-5.8,16.9-1.6
		l60.7,50.1l119.5-130.8c4.5-4.9,12-5.2,16.9-0.8c4.9,4.5,5.2,12,0.8,16.9L218,333.6C215.6,336.2,212.4,337.5,209.1,337.5z"/>
</g>
</svg>
