<?xml version="1.0" encoding="utf-8"?>
<!-- Generator: Adobe Illustrator 27.2.0, SVG Export Plug-In . SVG Version: 6.00 Build 0)  -->
<svg version="1.1" xmlns="http://www.w3.org/2000/svg" xmlns:xlink="http://www.w3.org/1999/xlink" x="0px" y="0px"
	 viewBox="0 0 431 512" enable-background="new 0 0 431 512" xml:space="preserve" class="h-full">
<g>
	<g>
		<g>
			<path fill="#FFFFFF" d="M386.5,385.9V266c0-23.1-4.5-45.6-13.5-66.8c-8.6-20.4-21-38.8-36.8-54.5S302,116.7,281.6,108
				c-10.3-4.4-21-7.7-31.9-9.9V33.7c0.1-18.6-15-33.7-33.6-33.7h-2.4C195.1,0,180,15.1,180,33.7v64.5c-10.9,2.2-21.5,5.6-31.9,9.9
				c-20.4,8.6-38.8,21-54.5,36.8S65.4,179,56.7,199.4c-9,21.1-13.5,43.6-13.5,66.8v119.8c-18,0.6-32.5,15.5-32.5,33.7v10.3
				c0,18.6,15.1,33.7,33.7,33.7h123.2c0,0.4,0,0.8,0,1.1c0,26.1,21.2,47.3,47.3,47.3c26.1,0,47.3-21.2,47.3-47.3
				c0-0.4,0-0.8-0.1-1.1h122.6c18.6,0,33.7-15.1,33.7-33.7v-10.3C418.4,401.6,404.2,386.9,386.5,385.9z M204.4,33.7
				c0-5.1,4.2-9.3,9.3-9.3h2.4c5.1,0,9.3,4.2,9.3,9.3v62.1h-20.9V33.7H204.4z M67.6,266c0-39.3,15.3-76.2,43.1-104
				c23.4-23.4,53.3-38,85.7-42c6-0.8,12.2-1.1,18.4-1.1s12.3,0.4,18.4,1.1c32.3,4,62.2,18.5,85.6,42c27.8,27.8,43.1,64.7,43.1,104
				v119.9H67.6V266z M237.7,464.7c0,12.6-10.2,22.9-22.8,22.9c-12.6,0-22.9-10.3-22.9-22.9c0-0.4,0-0.8,0-1.1h45.8
				C237.8,464,237.7,464.3,237.7,464.7z M394,429.9c0,5.1-4.2,9.3-9.3,9.3H44.4c-5.1,0-9.3-4.2-9.3-9.3v-10.3c0-5.1,4.2-9.3,9.3-9.3
				h340.2c5.1,0,9.3,4.2,9.3,9.3V429.9z"/>
		</g>
		<path fill="#E6005E" d="M419,264.6c-6.4,0-11.8-5-12.2-11.4c-2.1-33.6-12.5-60.2-20.9-76.6c-9.1-17.9-17.9-28-18-28.1
			c-4.5-5-4-12.7,1-17.2c5-4.5,12.8-4,17.2,1c1.6,1.8,40.3,46.1,44.9,119.4c0.4,6.7-4.7,12.5-11.4,13
			C419.5,264.6,419.3,264.6,419,264.6z"/>
		<path fill="#0052FF" d="M12.2,264.6c-6.7,0-12.2-5.5-12.2-12.2c0-69.4,43.2-118.2,45-120.2c4.5-5,12.2-5.4,17.2-0.9
			c5,4.5,5.4,12.2,0.9,17.2c-0.2,0.2-10,11.3-19.6,29.7c-8.7,16.7-19.2,43.2-19.2,74.2C24.4,259.2,18.9,264.6,12.2,264.6z"/>
	</g>
</g>
</svg>
