<?xml version="1.0" encoding="utf-8"?>
<!-- Generator: Adobe Illustrator 27.2.0, SVG Export Plug-In . SVG Version: 6.00 Build 0)  -->
<svg version="1.1" xmlns="http://www.w3.org/2000/svg" xmlns:xlink="http://www.w3.org/1999/xlink" x="0px" y="0px"
	 viewBox="0 0 706 512" enable-background="new 0 0 706 512" xml:space="preserve" class="h-full">
<g>
	<path fill="#FFFFFF" d="M670.3,0H35.8C16.1,0,0,16.1,0,35.8v440.3C0,495.9,16.1,512,35.8,512h634.4c19.8,0,35.8-16.1,35.8-35.9
		V35.8C706.1,16.1,690,0,670.3,0z M26,35.8c0-5.4,4.4-9.9,9.9-9.9h111.5v49.5H26V35.8z M680.1,476.1c0,5.4-4.4,9.9-9.9,9.9H35.8
		c-5.4,0-9.9-4.4-9.9-9.9V101.5H680L680.1,476.1L680.1,476.1z M680.1,75.5H173.2V26h497c5.4,0,9.9,4.4,9.9,9.9L680.1,75.5
		L680.1,75.5z"/>
	<path fill="#E6005E" d="M313.2,442.9H78.9c-7.2,0-13-5.8-13-13V160.1c0-7.2,5.8-13,13-13h234.3c7.2,0,13,5.8,13,13v269.8
		C326.2,437.1,320.3,442.9,313.2,442.9z M91.9,416.9h208.3V173.1H91.9V416.9z"/>
	<path fill="#0052FF" d="M614.5,218.1H402c-7.2,0-13-5.8-13-13s5.8-13,13-13h212.5c7.2,0,13,5.8,13,13S621.7,218.1,614.5,218.1z"/>
	<path fill="#0052FF" d="M516.3,281.7H402c-7.2,0-13-5.8-13-13s5.8-13,13-13h114.3c7.2,0,13,5.8,13,13S523.5,281.7,516.3,281.7z"/>
</g>
</svg>
