<?xml version="1.0" encoding="utf-8"?>
<!-- Generator: Adobe Illustrator 27.2.0, SVG Export Plug-In . SVG Version: 6.00 Build 0)  -->
<svg version="1.1" xmlns="http://www.w3.org/2000/svg" xmlns:xlink="http://www.w3.org/1999/xlink" x="0px" y="0px"
	 viewBox="0 0 625 512" enable-background="new 0 0 625 512" xml:space="preserve" class="h-full">
<g>
	<path fill="#FFFFFF" d="M596.7,340.8h-44.6V277c0-7-5.6-12.6-12.6-12.6H321.7v25.2h205.2v51.2h-44.6c-15.7,0-28.4,12.8-28.4,28.5
		v114.3c0,15.7,12.8,28.4,28.4,28.4h114.3c15.7,0,28.4-12.8,28.4-28.4V369.2C625.1,353.5,612.3,340.8,596.7,340.8z M599.9,483.6
		c0,1.8-1.5,3.3-3.3,3.3H482.3c-1.8,0-3.3-1.5-3.3-3.3V369.2c0-1.8,1.5-3.3,3.3-3.3h114.3c1.8,0,3.3,1.5,3.3,3.3L599.9,483.6
		L599.9,483.6z"/>
	<path fill="#E6005E" d="M296.5,289.6v-25.2H80.8c-7,0-12.6,5.6-12.6,12.6v63.8H28.6c-15.7,0-28.4,12.8-28.4,28.5v114.3
		C0.2,499.3,13,512,28.6,512h114.3c15.7,0,28.4-12.8,28.4-28.4V369.2c0-15.7-12.8-28.5-28.4-28.5H93.4v-51.2h203.1V289.6z
		 M142.9,366c1.8,0,3.3,1.5,3.3,3.3v114.3c0,1.8-1.5,3.3-3.3,3.3H28.5c-1.8,0-3.3-1.5-3.3-3.3V369.2c0-1.8,1.5-3.3,3.3-3.3
		L142.9,366L142.9,366z"/>
	<path fill="#0052FF" d="M373,483.6c0,1.8-1.5,3.3-3.3,3.3H255.4c-1.8,0-3.3-1.5-3.3-3.3V369.2c0-1.8,1.5-3.3,3.3-3.3h114.3
		c1.8,0,3.3,1.5,3.3,3.3L373,483.6L373,483.6z M369.8,340.8h-48.1V213.2h-25.2v127.6h-41.1c-15.7,0-28.4,12.8-28.4,28.5v114.3
		c0,15.7,12.8,28.4,28.4,28.4h114.3c15.7,0,28.5-12.8,28.5-28.4V369.2C398.2,353.5,385.5,340.8,369.8,340.8z"/>
	<g>
		<path fill="#FFFFFF" d="M590.9,0H34.3C14.5,0,0.1,10,0.1,23.7v165.8c0,13.7,14.4,23.7,34.2,23.7h556.6c19.8,0,34.2-10,34.2-23.7
			V23.7C625.1,10,610.7,0,590.9,0z M599.9,186.4c-1.7,0.8-4.8,1.6-9,1.6H34.3c-4.2,0-7.3-0.9-9-1.6V26.8c1.7-0.8,4.8-1.6,9-1.6
			h556.6c4.2,0,7.3,0.9,9,1.6V186.4z"/>
	</g>
</g>
</svg>
