<?xml version="1.0" encoding="utf-8"?>
<!-- Generator: Adobe Illustrator 27.2.0, SVG Export Plug-In . SVG Version: 6.00 Build 0)  -->
<svg version="1.1" xmlns="http://www.w3.org/2000/svg" xmlns:xlink="http://www.w3.org/1999/xlink" x="0px" y="0px"
	 viewBox="0 0 508 512" enable-background="new 0 0 508 512" xml:space="preserve" class="h-full">
<g>
	<path fill="#FFFFFF" d="M508,271.7v19.1c0-27.3-11-52.1-28.8-70.2c-2.4-13.8-5.7-27.4-10-40.7c-9.7-29.9-24.1-57.5-42.7-82
		c-17.8-23.5-36.9-39.8-60-51.4c-29.6-14.8-66-22.1-111.3-22.1c-66.3,0-119.7,20.3-158.5,60.3c-17.2,17.7-31.6,39.3-43,64.4
		c-9.2,20.3-16.5,42.8-21.5,67c-0.1,0.5-0.2,1-0.3,1.5c-19.5,18.2-31.8,44.2-31.8,73c0,0.8,0,1.6,0,2.4c-0.1-0.7-0.2-1.3-0.2-2
		c0-1.4-1-35,8.2-79.2c5.4-26,13.2-50.4,23.1-72.4C43.9,111.6,60,87.5,79.1,67.7C122.7,22.8,182,0,255.3,0
		c49.2,0,89.2,8.1,122.2,24.6C404,38,425.8,56.5,445.9,83.1c20.2,26.7,35.9,56.7,46.4,89.2C502.8,204.2,508,237.6,508,271.7z"/>
	<path fill="#E6005E" d="M479.2,220.6c-18.1-18.4-43.3-29.8-71.2-29.8c-6.8,0-12.2,5.5-12.2,12.2v175.5c0,6.8,5.5,12.2,12.2,12.2
		c30.1,0,57.2-13.4,75.5-34.5c15.2-17.6,24.5-40.5,24.5-65.5C508,263.4,497,238.6,479.2,220.6z M420.3,365.2v-149
		c35.8,5.9,63.3,37,63.3,74.5C483.5,328.2,456.1,359.4,420.3,365.2z"/>
	<path fill="#0052FF" d="M100.1,190.7c-26.3,0-50.3,10.2-68.2,27c-19.5,18.2-31.8,44.2-31.8,73c0,0.8,0,1.6,0,2.4l0,0
		c1.3,54,45.6,97.6,100,97.6c6.8,0,12.2-5.5,12.2-12.2V203C112.4,196.2,106.9,190.7,100.1,190.7z M87.9,365.2
		c-35.8-5.9-63.3-37-63.3-74.5s27.4-68.6,63.3-74.5V365.2z"/>
	<path fill="#FFFFFF" d="M483.5,356.2v122c0,5.1-4.2,9.3-9.3,9.3H341.7c0.9-3,1.3-6.1,1.3-9.3v-24.7c0-18.6-15.1-33.8-33.8-33.8
		h-74.8c-18.6,0-33.8,15.1-33.8,33.8v24.7c0,18.6,15.1,33.8,33.8,33.8h239.7c18.6,0,33.8-15.2,33.8-33.8V290.7
		C508,315.7,498.8,338.6,483.5,356.2z M225.3,478.2v-24.7c0-5.1,4.2-9.3,9.3-9.3h74.8c5.1,0,9.3,4.2,9.3,9.3v24.7
		c0,5.1-4.2,9.3-9.3,9.3h-74.8C229.4,487.5,225.3,483.4,225.3,478.2z"/>
</g>
</svg>
