<?xml version="1.0" encoding="utf-8"?>
<!-- Generator: Adobe Illustrator 27.2.0, SVG Export Plug-In . SVG Version: 6.00 Build 0)  -->
<svg version="1.1" xmlns="http://www.w3.org/2000/svg" xmlns:xlink="http://www.w3.org/1999/xlink" x="0px" y="0px"
	 viewBox="0 0 641 512" enable-background="new 0 0 641 512" xml:space="preserve" class="h-full">
<g>
	<path fill="#FFFFFF" d="M606,227.6h-571C15.7,227.6,0,211.9,0,192.5V35.1C0,15.7,15.7,0,35.1,0h570.9C625.3,0,641,15.7,641,35.1
		v157.3C641.1,211.8,625.3,227.6,606,227.6z M35.1,25.4c-5.3,0-9.7,4.3-9.7,9.7v157.3c0,5.3,4.3,9.7,9.7,9.7h570.9
		c5.3,0,9.7-4.3,9.7-9.7V35.1c0-5.3-4.3-9.7-9.7-9.7C605.9,25.4,35.1,25.4,35.1,25.4z"/>
	<path fill="#0052FF" d="M398.4,161.1c-26.1,0-47.3-21.2-47.3-47.3s21.2-47.3,47.3-47.3c26.1,0,47.3,21.2,47.3,47.3
		S424.5,161.1,398.4,161.1z M398.4,91.9c-12.1,0-21.9,9.8-21.9,21.9s9.8,21.9,21.9,21.9s21.9-9.8,21.9-21.9S410.5,91.9,398.4,91.9z"
		/>
	<path fill="#0052FF" d="M524.5,161.1c-26.1,0-47.3-21.2-47.3-47.3s21.2-47.3,47.3-47.3c26.1,0,47.3,21.2,47.3,47.3
		S550.6,161.1,524.5,161.1z M524.5,91.9c-12.1,0-21.9,9.8-21.9,21.9s9.8,21.9,21.9,21.9c12.1,0,21.9-9.8,21.9-21.9
		S536.6,91.9,524.5,91.9z"/>
	<path fill="#FFFFFF" d="M606,512h-571C15.7,512,0,496.3,0,476.9V319.6c0-19.4,15.7-35.1,35.1-35.1h570.9
		c19.4,0,35.1,15.7,35.1,35.1v157.3C641.1,496.3,625.3,512,606,512z M35.1,309.9c-5.3,0-9.7,4.3-9.7,9.7v157.3
		c0,5.3,4.3,9.7,9.7,9.7h570.9c5.3,0,9.7-4.3,9.7-9.7V319.6c0-5.3-4.3-9.7-9.7-9.7H35.1z"/>
	<path fill="#E6005E" d="M398.4,445.5c-26.1,0-47.3-21.2-47.3-47.3c0-26.1,21.2-47.3,47.3-47.3c26.1,0,47.3,21.2,47.3,47.3
		S424.5,445.5,398.4,445.5z M398.4,376.4c-12.1,0-21.9,9.8-21.9,21.9s9.8,21.9,21.9,21.9s21.9-9.8,21.9-21.9
		C420.3,386.2,410.5,376.4,398.4,376.4z"/>
	<path fill="#E6005E" d="M524.5,445.5c-26.1,0-47.3-21.2-47.3-47.3c0-26.1,21.2-47.3,47.3-47.3c26.1,0,47.3,21.2,47.3,47.3
		C571.8,424.3,550.6,445.5,524.5,445.5z M524.5,376.4c-12.1,0-21.9,9.8-21.9,21.9s9.8,21.9,21.9,21.9c12.1,0,21.9-9.8,21.9-21.9
		C546.4,386.2,536.6,376.4,524.5,376.4z"/>
</g>
</svg>
