<?xml version="1.0" encoding="utf-8"?>
<!-- Generator: Adobe Illustrator 27.2.0, SVG Export Plug-In . SVG Version: 6.00 Build 0)  -->
<svg version="1.1" xmlns="http://www.w3.org/2000/svg" xmlns:xlink="http://www.w3.org/1999/xlink" x="0px" y="0px"
	 viewBox="0 0 334 512" enable-background="new 0 0 334 512" xml:space="preserve" class="h-full">
<path fill="#FFFFFF" d="M250.3,512H83.4c-18.2,0-33-14.8-33-33.1V209.8H11.8c-4.6,0-8.9-2.7-10.8-6.9c-2-4.2-1.3-9.2,1.7-12.8
	L157.6,4.3c2.3-2.7,5.6-4.3,9.2-4.3c3.6,0,6.9,1.6,9.2,4.3l155,185.9c3,3.6,3.6,8.5,1.7,12.8c-2,4.2-6.2,6.9-10.8,6.9h-38.5V479
	C283.3,497.2,268.5,512,250.3,512z M37.4,185.9h24.8c6.6,0,12,5.4,12,12V479c0,5,4.1,9.1,9.1,9.1h166.9c5,0,9.1-4.1,9.1-9.1V197.8
	c0-6.6,5.4-12,12-12h24.9L166.8,30.7L37.4,185.9z"/>
</svg>
