<?xml version="1.0" encoding="utf-8"?>
<!-- Generator: Adobe Illustrator 27.2.0, SVG Export Plug-In . SVG Version: 6.00 Build 0)  -->
<svg version="1.1" xmlns="http://www.w3.org/2000/svg" xmlns:xlink="http://www.w3.org/1999/xlink" x="0px" y="0px"
	 viewBox="0 0 582 512" enable-background="new 0 0 582 512" xml:space="preserve" class="h-full">
<g>
	<path fill="#FFFFFF" d="M569.8,512H32.1C14.4,512,0,497.6,0,479.9V12.1C0.1,5.4,5.4,0,12.1,0s12.1,5.4,12.1,12.1V480
		c0,4.4,3.6,8,8,8h537.7c6.7,0,12.1,5.4,12.1,12.1S576.5,512,569.8,512z"/>
	<path fill="#0052FF" d="M77.3,440.1c-3.1,0-6.2-1.2-8.6-3.6c-4.7-4.7-4.6-12.4,0.1-17l175-173c4.6-4.5,11.9-4.7,16.6-0.3l86,78.9
		L528,129.8c4.5-4.9,12.2-5.2,17-0.6c4.9,4.5,5.2,12.2,0.6,17l-189.7,204c-4.5,4.9-12.1,5.2-17,0.7l-86.4-79.2L85.8,436.6
		C83.4,438.9,80.4,440.1,77.3,440.1z"/>
</g>
</svg>
