<svg xmlns="http://www.w3.org/2000/svg" xml:space="preserve" viewBox="0 0 512 512" class="h-full"><g fill="#E6005E"><circle cx="136.8" cy="136.7" r="40.3"/><path d="M96.6 215h80.5v200.5H96.6zM415.4 282.4v133.2H348V309.4c0-7.1-1.3-14.2-4.2-20.7-4.2-9.6-12.5-20.4-28.4-20.7-18.1-.4-26.3 13.7-29.9 24.3-1.8 5.3-2.6 10.9-2.6 16.6v106.7h-67.4V215h67.4v26.6s15.7-32.2 65.2-26.6c18.6 0 35.4 7.5 47.6 19.7 12.2 12.2 19.7 29.1 19.7 47.7z"/></g><path fill="#FFF" d="M468 20c13.2 0 24 10.8 24 24v424c0 13.2-10.8 24-24 24H44c-13.2 0-24-10.8-24-24V44c0-13.2 10.8-24 24-24h424m0-20H44C19.7 0 0 19.7 0 44v424c0 24.3 19.7 44 44 44h424c24.3 0 44-19.7 44-44V44c0-24.3-19.7-44-44-44z"/></svg>