<?xml version="1.0" encoding="utf-8"?>
<!-- Generator: Adobe Illustrator 27.2.0, SVG Export Plug-In . SVG Version: 6.00 Build 0)  -->
<svg version="1.1" xmlns="http://www.w3.org/2000/svg" xmlns:xlink="http://www.w3.org/1999/xlink" x="0px" y="0px"
	 viewBox="0 0 493 512" enable-background="new 0 0 493 512" xml:space="preserve" class="h-full">
<g>
	<g>
		<path fill="#FFFFFF" d="M468.9,50.5c-13.2-8.3-31.4-16.6-52.8-23.8C386.8,16.7,325.8,0,246.4,0S106,16.7,76.8,26.6
			C55.5,33.8,37.2,42.1,24,50.4C7.9,60.6,0.1,70.5,0.1,80.7v356.5c0,10.3,8,20,24.3,29.6c13,7.6,31.3,15.1,52.8,21.7
			c28.9,8.8,89.3,23.5,169.3,23.5s140.4-14.7,169.3-23.5c21.5-6.5,39.7-14,52.8-21.7c16.3-9.6,24.3-19.2,24.3-29.6V80.7
			C492.9,70.6,485,60.7,468.9,50.5z M469.1,436.4c-2.1,3.6-17.9,17.2-66.5,31.2c-46.4,13.3-101.9,20.6-156.1,20.6
			s-109.6-7.3-156.1-20.6c-48.7-14-64.4-27.6-66.5-31.2V329c23.1,8.3,68.8,22.6,129.5,31.1c32.6,4.6,65.3,6.9,97.7,6.9
			c18.4,0,36.7-0.8,54.8-2.2c56.5-4.7,111.4-16.7,163.4-35.8L469.1,436.4L469.1,436.4z M469.1,303.6
			c-52.2,20.1-107.7,32.7-164.8,37.5c-48,4-97.5,2.6-146.9-4.4c-33.7-4.7-64.1-11.6-88.5-18.4c-19.2-5.3-34.7-10.6-45-14.6V174.2
			c23.1,8.3,68.8,22.6,129.5,31.1c32.6,4.6,65.3,6.9,97.7,6.9c18.4,0,36.7-0.8,54.8-2.2c56.5-4.7,111.4-16.7,163.4-35.8v129.4
			L469.1,303.6L469.1,303.6z M469.1,148.7c-52.2,20.1-107.7,32.7-164.9,37.5c-48,4-97.5,2.5-146.9-4.4
			c-60.4-8.4-110.1-23.9-133.6-33V81.5c2.5-5,21.9-19.9,66.3-34.2c47-15.1,102.6-23.5,156.3-23.5s109.3,8.3,156.3,23.5
			c44.4,14.3,63.8,29.2,66.3,34.2L469.1,148.7L469.1,148.7z"/>
		<path fill="#FFFFFF" d="M0.1,156.1v1.6C0,157.1,0,156.6,0.1,156.1z"/>
	</g>
	<path fill="#0052FF" d="M214,328.9c-45.3,0-84.5-7.1-110.6-13.5c-32.8-8.1-52.7-16.8-53.5-17.2c-6-2.6-8.7-9.7-6.1-15.7
		c2.6-6,9.7-8.7,15.7-6.1l0,0c0.8,0.3,76.7,33,174.4,28.2c6.6-0.3,12.1,4.7,12.5,11.3c0.3,6.6-4.7,12.1-11.3,12.5
		C227.9,328.7,220.9,328.9,214,328.9z"/>
	<path fill="#E6005E" d="M233.7,171c-103.6,0-180.1-28.7-183.3-30c-6.1-2.3-9.2-9.2-6.9-15.3c2.3-6.1,9.2-9.2,15.3-6.9
		c1,0.4,76.1,28.4,174.8,28.4c0.2,0,0.5,0,0.7,0c6.6,0,11.9,5.3,11.9,11.9c0,6.6-5.3,11.9-11.9,11.9C234.2,171,233.9,171,233.7,171z
		"/>
	<path fill="#E6005E" d="M233.8,473.3c-111.6,0-181.4-33.1-184.3-34.5c-5.9-2.9-8.4-10-5.5-15.9c2.8-5.9,9.9-8.4,15.8-5.5l0,0
		c0.7,0.3,68.3,32.2,174,32.2c0.2,0,0.4,0,0.6,0c6.6,0,11.9,5.3,11.9,11.9s-5.3,11.9-11.9,11.9C234.3,473.3,234,473.3,233.8,473.3z"
		/>
</g>
</svg>
