<svg xmlns="http://www.w3.org/2000/svg" xml:space="preserve" viewBox="0 0 512 512" class="h-full"><path fill="#0052FF" d="M209.1 438.8V293.7h-44.7v-72.4h46.2V170c0-44.6 36.3-80.8 80.8-80.8h56.2v71h-31.3c-14.4 0-26.1 11.7-26.1 26.1V222h45l-4.5 72.4h-40.4v144.4h-81.2z"/><path fill="#FFF" d="M468 20c13.2 0 24 10.8 24 24v424c0 13.2-10.8 24-24 24H44c-13.2 0-24-10.8-24-24V44c0-13.2 10.8-24 24-24h424m0-20H44C19.7 0 0 19.7 0 44v424c0 24.3 19.7 44 44 44h424c24.3 0 44-19.7 44-44V44c0-24.3-19.7-44-44-44z"/></svg>