<svg xmlns="http://www.w3.org/2000/svg" xml:space="preserve" viewBox="0 0 512 512" class="h-full"><path fill="#0052FF" d="M367.9 150.6s-35-41-85.1-16.8-30.4 79.5-30.4 79.5-81.6 5.3-144.4-73.3c0 0-20.6 59.6 22.7 92.8 0 0-17.2 0-27.6-7.4 0 0-10.4 38.5 48.6 68.5 0 0-12.1 3.7-29 0 0 0 7.4 34.3 62.2 49 0 0-14.8 29.5-93.3 30.1 0 0 112.8 72.4 224.7-13 0 0 82.1-64.8 73.3-162.9l30.4-32.7-35.8 6.2 24.9-34.3-41.2 14.3z"/><path fill="#FFF" d="M468 20c13.2 0 24 10.8 24 24v424c0 13.2-10.8 24-24 24H44c-13.2 0-24-10.8-24-24V44c0-13.2 10.8-24 24-24h424m0-20H44C19.7 0 0 19.7 0 44v424c0 24.3 19.7 44 44 44h424c24.3 0 44-19.7 44-44V44c0-24.3-19.7-44-44-44z"/></svg>