<?xml version="1.0" encoding="utf-8"?>
<!-- Generator: Adobe Illustrator 27.2.0, SVG Export Plug-In . SVG Version: 6.00 Build 0)  -->
<svg version="1.1" xmlns="http://www.w3.org/2000/svg" xmlns:xlink="http://www.w3.org/1999/xlink" x="0px" y="0px"
	 viewBox="0 0 865 512" enable-background="new 0 0 865 512" xml:space="preserve" class="h-full">
<g>
	<path fill="#FFFFFF" d="M489.6,162.2V45.4c0-25-20.4-45.4-45.4-45.4h-2.8C416.3,0,396,20.4,396,45.4v5.8
		c-13.1,21.1-32.8,38.8-58.4,52.6c-21.9,11.8-48.2,20.8-78.1,26.9c-51.7,10.4-96.7,8-97.2,8c-0.2,0-0.4,0-0.7,0H28.9
		C12.9,138.6,0,151.6,0,167.5V339c0,15.9,12.9,28.9,28.9,28.9h133c3.8-0.1,7.6-0.1,11.3-0.1h0.1c5.6-0.1,11.3,0,16.9,0.3v0.3
		c1.7,0.1,3.5,0.2,5.2,0.4c6.4,0.5,12.7,1.2,18.8,2.1c57.7,8.5,102.6,32.3,131.1,51.9c28.3,19.4,46,38.2,51.5,44.3
		c4.1,20.8,22.5,43.9,44.6,43.9h2.8c25.1,0,45.4-20.4,45.4-45.4v-124c38.9-11.9,66.2-48.2,66.2-89.7
		C555.9,210.4,528.5,174.1,489.6,162.2z M149.6,343.9H28.9c-2.7,0-4.9-2.2-4.9-4.9V167.5c0-2.7,2.2-4.9,4.9-4.9h120.7L149.6,343.9
		L149.6,343.9z M396,432.4c-9.2-8.4-21.4-18.5-36.3-28.8c-32.5-22.4-84.9-50.1-152.7-57.7l0,0c-3.1-0.4-6.3-0.7-9.5-0.9
		c-7.9-0.7-15.8-1-23.8-1.1v-181c17.7,0.1,51.8-1,90.1-8.6c32.4-6.5,61-16.3,85.1-29.2c18.4-9.9,34.2-21.7,47.3-35.2v342.5H396z
		 M465.6,465.7c0,11.8-9.6,21.5-21.5,21.5h-2.8c-11.8,0-21.5-9.6-21.5-21.5V45.4c0-11.8,9.6-21.5,21.5-21.5h2.8
		c11.8,0,21.5,9.6,21.5,21.5V465.7z M489.6,316.1V187.7c25.2,10.8,42.3,35.9,42.3,64.2C531.9,280.2,514.8,305.3,489.6,316.1z"/>
	<path fill="#0052FF" d="M195.4,368.8c-1.7-0.1-3.4-0.3-5.2-0.4v114.7c0,2.7-2.2,4.9-4.9,4.9h-47.5c-2.7,0-4.9-2.2-4.9-4.9V367.9
		h-24v115.2c0,15.9,12.9,28.9,28.9,28.9h47.5c15.9,0,28.9-13,28.9-28.9V371C208.1,370.1,201.8,369.4,195.4,368.8z"/>
	<path fill="#E6005E" d="M853,263.9H693.9c-6.6,0-12-5.4-12-12s5.4-12,12-12H853c6.6,0,12,5.4,12,12S859.6,263.9,853,263.9z"/>
	<path fill="#E6005E" d="M636.2,136.5c-3.1,0-6.1-1.2-8.5-3.5c-4.7-4.7-4.7-12.3,0-17L740.3,3.5c4.7-4.7,12.3-4.7,16.9,0
		c4.7,4.7,4.7,12.3,0,17L644.7,133C642.3,135.3,639.3,136.5,636.2,136.5z"/>
	<path fill="#E6005E" d="M750.2,488.4c-3.1,0-6.1-1.2-8.5-3.5L629.2,372.4c-4.7-4.7-4.7-12.3,0-17s12.3-4.7,16.9,0l112.5,112.5
		c4.7,4.7,4.7,12.3,0,17C756.3,487.2,753.2,488.4,750.2,488.4z"/>
</g>
</svg>
