<?xml version="1.0" encoding="utf-8"?>
<!-- Generator: Adobe Illustrator 27.2.0, SVG Export Plug-In . SVG Version: 6.00 Build 0)  -->
<svg version="1.1" xmlns="http://www.w3.org/2000/svg" xmlns:xlink="http://www.w3.org/1999/xlink" x="0px" y="0px"
	 viewBox="0 0 644 512" enable-background="new 0 0 644 512" xml:space="preserve" class="h-full">
<g>
	<path fill="#E6005E" d="M224.9,305.5c0-4,0.2-8,0.6-11.9H116.3c-5.5-26.7-29.2-46.8-57.5-46.8c-32.4,0-58.7,26.3-58.7,58.7
		s26.3,58.7,58.7,58.7c28.3,0,52-20.1,57.5-46.8h109.4C225.1,313.5,224.9,309.5,224.9,305.5z M58.9,340.3
		c-19.2,0-34.9-15.6-34.9-34.9c0-19.2,15.6-34.9,34.9-34.9c19.2,0,34.9,15.6,34.9,34.9C93.7,324.7,78.1,340.3,58.9,340.3z"/>
	<path fill="#005CFF" d="M585.3,66.5c-32.4,0-58.7,26.3-58.7,58.7c0,8.8,2,17.2,5.5,24.8l-111.9,78.3c5.5,5.9,10.3,12.2,14.4,19
		L546.4,169c10.4,9.2,24,14.8,38.9,14.8c32.4,0,58.7-26.3,58.7-58.7C644,92.8,617.7,66.5,585.3,66.5z M585.3,160
		c-19.2,0-34.9-15.6-34.9-34.9c0-19.2,15.6-34.9,34.9-34.9s34.9,15.6,34.9,34.9S604.6,160,585.3,160z"/>
	<path fill="#FFFFFF" d="M585.3,394.6c-16.6,0-31.6,6.9-42.3,18L440.9,352c6.5-14.5,10-30.2,10-46.6c0-20.8-5.6-40.8-16.1-58.2
		c-4.1-6.8-8.9-13.1-14.4-19c-0.8-0.9-1.7-1.8-2.6-2.7c-21.3-21.3-49.7-33.1-79.9-33.1c-11.6,0-23,1.7-33.8,5.1L257,105
		c13.8-10.7,22.7-27.5,22.7-46.3C279.7,26.3,253.4,0,221,0s-58.7,26.3-58.7,58.7s26.3,58.7,58.7,58.7c5.1,0,10-0.6,14.7-1.9
		l46.6,91.6c-8.8,5-16.9,11.2-24.2,18.5c-18.5,18.5-29.8,42.3-32.5,68c-0.4,3.9-0.6,7.9-0.6,11.9s0.2,8,0.6,11.9
		c2.7,25.7,14,49.5,32.5,68c21.3,21.3,49.7,33.1,79.9,33.1c30.2,0,58.5-11.8,79.9-33.1c4-4,7.7-8.3,11-12.8l101.6,60.2
		c-2.4,6.4-3.7,13.3-3.7,20.5c0,32.4,26.3,58.7,58.7,58.7c32.4,0,58.7-26.3,58.7-58.7C644,420.9,617.7,394.6,585.3,394.6z
		 M236.9,89.7L236.9,89.7c-0.5,0.2-0.9,0.4-1.3,0.6l0,0c-4.4,2-9.4,3.2-14.6,3.2c-19.2,0-34.9-15.6-34.9-34.9
		c0-19.2,15.7-34.9,34.9-34.9s34.9,15.6,34.9,34.9C255.8,72.2,248.1,83.9,236.9,89.7z M337.9,394.6c-49.2,0-89.2-40-89.2-89.2
		c0-49.1,40-89.1,89.2-89.1s89.1,40,89.1,89.1C427,354.6,387.1,394.6,337.9,394.6z M585.3,488.2c-19.2,0-34.9-15.7-34.9-34.9
		c0-6.7,1.9-12.9,5.1-18.2c0.2-0.4,0.5-0.7,0.7-1.1c6.2-9.4,17-15.6,29.1-15.6c19.2,0,34.9,15.6,34.9,34.9
		C620.2,472.5,604.6,488.2,585.3,488.2z"/>
	<path fill="#0D1830" d="M556.3,434.1c0,0.1-0.1,0.1-0.1,0.2c-0.2,0.3-0.4,0.6-0.6,0.8C555.8,434.8,556,434.4,556.3,434.1z"/>
</g>
</svg>
