<?xml version="1.0" encoding="utf-8"?>
<!-- Generator: Adobe Illustrator 27.2.0, SVG Export Plug-In . SVG Version: 6.00 Build 0)  -->
<svg version="1.1" xmlns="http://www.w3.org/2000/svg" xmlns:xlink="http://www.w3.org/1999/xlink" x="0px" y="0px"
	 viewBox="0 0 621 512" enable-background="new 0 0 621 512" xml:space="preserve" class="h-full">
<g>
	<path fill="#FFFFFF" d="M610,74.4H258.7c-6.1,0-11-4.9-11-11s4.9-11,11-11H610c6.1,0,11,4.9,11,11S616.1,74.4,610,74.4z"/>
	<path fill="#FFFFFF" d="M610,275.9H258.7c-6.1,0-11-4.9-11-11c0-6.1,4.9-11,11-11H610c6.1,0,11,4.9,11,11
		C621.1,271,616.1,275.9,610,275.9z"/>
	<path fill="#FFFFFF" d="M610,477.6H258.7c-6.1,0-11-4.9-11-11s4.9-11,11-11H610c6.1,0,11,4.9,11,11
		C621.1,472.6,616.1,477.6,610,477.6z"/>
	<path fill="#E6005E" d="M63.1,126.6c-2.7,0-5.4-1-7.4-2.9L3.6,76.3c-4.5-4.1-4.8-11.1-0.8-15.6c4.1-4.5,11.1-4.8,15.6-0.8L62,99.6
		L142,4c3.9-4.7,10.9-5.3,15.5-1.4c4.7,3.9,5.3,10.9,1.4,15.5L71.5,122.5c-1.9,2.3-4.7,3.7-7.7,3.9
		C63.6,126.6,63.3,126.6,63.1,126.6z"/>
	<path fill="#E6005E" d="M63.1,328.1c-2.7,0-5.4-1-7.4-2.9L3.6,277.8c-4.5-4.1-4.8-11.1-0.8-15.6c4.1-4.5,11.1-4.8,15.6-0.8
		L62,301.1l79.9-95.6c3.9-4.7,10.9-5.3,15.5-1.4c4.7,3.9,5.3,10.9,1.4,15.5L71.5,324c-1.9,2.3-4.7,3.7-7.7,3.9
		C63.6,328.1,63.3,328.1,63.1,328.1z"/>
	<path fill="#0052FF" d="M95.7,512h-30c-16.8,0-30.5-13.7-30.5-30.5v-30c0-16.8,13.7-30.5,30.5-30.5h30c16.8,0,30.5,13.7,30.5,30.5
		v30C126.1,498.3,112.5,512,95.7,512z M65.7,443.2c-4.6,0-8.4,3.8-8.4,8.4v30c0,4.6,3.8,8.4,8.4,8.4h30c4.6,0,8.4-3.8,8.4-8.4v-30
		c0-4.6-3.8-8.4-8.4-8.4H65.7z"/>
</g>
</svg>
