<svg xmlns="http://www.w3.org/2000/svg" xml:space="preserve" viewBox="0 0 512 512" class="h-full"><path fill="#E6005E" d="M256 349.9c-45 0-81.6-36.6-81.6-81.6s36.6-81.6 81.6-81.6 81.6 36.6 81.6 81.6-36.6 81.6-81.6 81.6zm0-135.9c-29.9 0-54.2 24.3-54.2 54.2 0 29.9 24.3 54.2 54.2 54.2s54.2-24.3 54.2-54.2c0-29.8-24.3-54.2-54.2-54.2z"/><circle cx="348.1" cy="182.5" r="17.8" fill="#E6005E"/><path fill="#FFF" d="M468 20c13.2 0 24 10.8 24 24v424c0 13.2-10.8 24-24 24H44c-13.2 0-24-10.8-24-24V44c0-13.2 10.8-24 24-24h424m0-20H44C19.7 0 0 19.7 0 44v424c0 24.3 19.7 44 44 44h424c24.3 0 44-19.7 44-44V44c0-24.3-19.7-44-44-44z"/><path fill="#E6005E" d="M341.7 420.3H170.3c-36.8 0-66.8-30-66.8-66.8V182c0-36.8 30-66.8 66.8-66.8h171.5c36.8 0 66.8 30 66.8 66.8v171.5c0 36.8-30 66.8-66.9 66.8zM170.3 137.1c-24.8 0-44.9 20.1-44.9 44.9v171.5c0 24.8 20.1 44.9 44.9 44.9h171.5c24.8 0 44.9-20.1 44.9-44.9V182c0-24.8-20.1-44.9-44.9-44.9H170.3z"/></svg>