<?xml version="1.0" encoding="utf-8"?>
<!-- Generator: Adobe Illustrator 27.2.0, SVG Export Plug-In . SVG Version: 6.00 Build 0)  -->
<svg version="1.1" xmlns="http://www.w3.org/2000/svg" xmlns:xlink="http://www.w3.org/1999/xlink" x="0px" y="0px"
	 viewBox="0 0 630 512" enable-background="new 0 0 630 512" xml:space="preserve" class="h-full">
<g>
	<path fill="#FFFFFF" d="M121.2,512c-3.1,0-6.3-0.6-9.3-1.8c-9-3.7-14.9-12.5-14.9-22.3v-95.2H34.1C15.3,392.7,0,377.4,0,358.5V34.1
		C0,15.3,15.3,0,34.1,0h561.7C614.6,0,630,15.3,630,34.1v324.4c0,18.8-15.3,34.2-34.2,34.2H250.5L138.2,504.9
		C133.6,509.5,127.4,512,121.2,512z M34.1,24.7c-5.2,0-9.4,4.2-9.4,9.4v324.4c0,5.2,4.2,9.4,9.4,9.4h70.7c9.3,0,17,7.6,17,17v101.5
		l112.6-112.6c3.8-3.8,8.8-5.9,14.2-5.9h347.2c5.2,0,9.4-4.2,9.4-9.4V34.1c0-5.2-4.2-9.4-9.4-9.4C595.8,24.7,34.1,24.7,34.1,24.7z"
		/>
	<path fill="#0052FF" d="M149.9,243.8c-26.7,0-48.5-21.7-48.5-48.5c0-26.7,21.7-48.5,48.5-48.5s48.5,21.7,48.5,48.5
		C198.4,222,176.6,243.8,149.9,243.8z M149.9,171.6c-13.1,0-23.7,10.6-23.7,23.7c0,13.1,10.6,23.7,23.7,23.7
		c13.1,0,23.7-10.6,23.7-23.7C173.6,182.3,163,171.6,149.9,171.6z"/>
	<path fill="#0052FF" d="M314.9,243.8c-26.7,0-48.5-21.7-48.5-48.5c0-26.7,21.7-48.5,48.5-48.5c26.7,0,48.5,21.7,48.5,48.5
		C363.4,222,341.6,243.8,314.9,243.8z M314.9,171.6c-13.1,0-23.7,10.6-23.7,23.7c0,13.1,10.6,23.7,23.7,23.7s23.7-10.6,23.7-23.7
		C338.6,182.3,328,171.6,314.9,171.6z"/>
	<path fill="#0052FF" d="M480,243.8c-26.7,0-48.5-21.7-48.5-48.5c0-26.7,21.7-48.5,48.5-48.5c26.8,0,48.5,21.7,48.5,48.5
		C528.4,222,506.7,243.8,480,243.8z M480,171.6c-13.1,0-23.7,10.6-23.7,23.7c0,13.1,10.6,23.7,23.7,23.7c13.1,0,23.7-10.6,23.7-23.7
		C503.7,182.3,493,171.6,480,171.6z"/>
</g>
</svg>
