<?xml version="1.0" encoding="utf-8"?>
<!-- Generator: Adobe Illustrator 27.2.0, SVG Export Plug-In . SVG Version: 6.00 Build 0)  -->
<svg version="1.1" xmlns="http://www.w3.org/2000/svg" xmlns:xlink="http://www.w3.org/1999/xlink" x="0px" y="0px"
	 viewBox="0 0 440 512" enable-background="new 0 0 440 512" xml:space="preserve" class="h-full">
<g>
	<g>
		<path fill="none" d="M406.9,173.4H404C398.3,76.8,318,0,220,0S41.7,76.8,36,173.4h-2.9C14.9,173.4,0,188.2,0,206.5v272.4
			C0,497.1,14.8,512,33.1,512h373.8c18.2,0,33.1-14.8,33.1-33.1V206.5C440,188.2,425.1,173.4,406.9,173.4z M220,24
			c84.8,0,154.3,66.1,160,149.4h-52.2c-5.5-54.7-51.8-97.5-107.9-97.5s-102.4,42.8-107.9,97.5H60.1C65.7,90,135.2,24,220,24z
			 M303.8,173.4H136.2c5.4-41.4,40.9-73.5,83.8-73.5C262.9,99.9,298.4,132,303.8,173.4z M416,478.9c0,5-4.1,9.1-9.1,9.1H33.1
			c-5,0-9.1-4.1-9.1-9.1V206.5c0-5,4.1-9.1,9.1-9.1h373.8c5,0,9.1,4.1,9.1,9.1V478.9z"/>
	</g>
	<path fill="#E6005E" d="M258.4,434.1h-76.9c-3.5,0-6.9-1.6-9.2-4.3c-2.3-2.7-3.2-6.3-2.6-9.8l14.6-82.1c-9.3-9-14.7-21.5-14.7-34.7
		c0-26.6,21.6-48.2,48.2-48.2s48.2,21.6,48.2,48.2c0,13.2-5.4,25.6-14.7,34.7l18.7,81.5c0.8,3.6,0,7.3-2.3,10.2
		C265.5,432.4,262.1,434.1,258.4,434.1z M195.9,410.1h47.5l-17-74.1c-1.1-4.8,0.9-9.8,5-12.6c6.7-4.6,10.8-12.1,10.8-20.2
		c0-13.4-10.9-24.3-24.3-24.3c-13.4,0-24.3,10.9-24.3,24.3c0,8,3.9,15.5,10.5,20c3.9,2.7,5.9,7.4,5.1,12L195.9,410.1z"/>
</g>
</svg>
