<?xml version="1.0" encoding="utf-8"?>
<!-- Generator: Adobe Illustrator 27.2.0, SVG Export Plug-In . SVG Version: 6.00 Build 0)  -->
<svg version="1.1" xmlns="http://www.w3.org/2000/svg" xmlns:xlink="http://www.w3.org/1999/xlink" x="0px" y="0px"
	 viewBox="0 0 669 512" enable-background="new 0 0 669 512" xml:space="preserve" class="h-full">
<g>
	<path fill="#FFFFFF" d="M632.4,237.3H36.6C16.4,237.3,0,220.9,0,200.7V36.6C0,16.4,16.4,0,36.6,0h595.7C652.6,0,669,16.4,669,36.6
		v164.1C669,220.9,652.6,237.3,632.4,237.3z M36.6,26.5c-5.6,0-10.1,4.5-10.1,10.1v164.1c0,5.6,4.5,10.1,10.1,10.1h595.7
		c5.6,0,10.1-4.5,10.1-10.1V36.6c0-5.6-4.5-10.1-10.1-10.1C632.3,26.5,36.6,26.5,36.6,26.5z"/>
	<path fill="#E6005E" d="M316.3,49.7H72.7c-12.9,0-23.3,10.5-23.3,23.3v91.2c0,12.9,10.5,23.3,23.3,23.3h243.7
		c12.9,0,23.3-10.5,23.3-23.3V73.1C339.7,60.2,329.2,49.7,316.3,49.7z"/>
	<path fill="#FFFFFF" d="M632.4,512H36.6C16.4,512,0,495.6,0,475.4V311.3c0-20.2,16.4-36.6,36.6-36.6h595.7
		c20.2,0,36.6,16.4,36.6,36.6v164.1C669,495.6,652.6,512,632.4,512z M36.6,301.3c-5.6,0-10.1,4.5-10.1,10.1v164.1
		c0,5.6,4.5,10.1,10.1,10.1h595.7c5.6,0,10.1-4.5,10.1-10.1V311.3c0-5.6-4.5-10.1-10.1-10.1H36.6V301.3z"/>
	<path fill="#0052FF" d="M512.3,324.4H72.7c-12.9,0-23.3,10.5-23.3,23.3V439c0,12.9,10.5,23.3,23.3,23.3h439.6
		c12.9,0,23.3-10.5,23.3-23.3v-91.2C535.6,334.9,525.2,324.4,512.3,324.4z"/>
</g>
</svg>
