<svg version="1.1" xmlns="http://www.w3.org/2000/svg" xmlns:xlink="http://www.w3.org/1999/xlink" x="0px" y="0px" viewBox="0 0 500 577" xml:space="preserve" class="w-10 h-10 lg:w-16 lg:h-16">
    <polygon points="0,322.9 310.5,144.2 250.3,109.5 95,199.1 0,144.3 250,0 500,144.2 189.6,322.9 344.6,412.3 250,467.1 " class="opacity-0"></polygon>
    <g class="fill-current text-blue-500">
        <polygon points="250,467.1 344.6,412.3 189.6,322.9 500,144.2 500,432.8 250,577 	"></polygon>
        <polygon points="95,199.1 95,268.2 250.3,178.8 250.3,109.5 	"></polygon>
    </g>
    <g class="fill-current text-pink-500">
        <polygon points="250.3,109.5 250.3,178.8 310.5,144.2"></polygon>
        <polygon points="0,322.9 250,467.1 250,577 0,432.8"></polygon>
        <polygon points="0,144.3 95,199.1 95,268.2 0,322.9"></polygon>
    </g>
</svg>
